<?xml version="1.0" standalone="no"?>
<!DOCTYPE svg PUBLIC "-//W3C//DTD SVG 20010904//EN"
 "http://www.w3.org/TR/2001/REC-SVG-20010904/DTD/svg10.dtd">
<svg version="1.0" xmlns="http://www.w3.org/2000/svg"
 width="2847.000000pt" height="2847.000000pt" viewBox="0 0 2847.000000 2847.000000"
 preserveAspectRatio="xMidYMid meet">
<metadata>
Created by potrace 1.14, written by Peter Selinger 2001-2017
</metadata>
<g transform="translate(0.000000,2847.000000) scale(0.100000,-0.100000)"
fill="#000000" stroke="none">
<path d="M1179 16098 c-3 -90 -1 -1679 2 -1683 3 -2 58 -7 124 -10 66 -3 131
-8 145 -10 14 -2 50 -7 80 -10 237 -27 569 -107 725 -175 11 -4 39 -15 63 -24
141 -53 416 -206 557 -309 326 -241 528 -478 678 -797 78 -165 78 -150 -1
-151 -161 -1 -404 -1 -484 1 -114 3 -138 18 -223 140 -66 92 -153 198 -206
250 -200 191 -362 297 -600 394 -175 72 -408 127 -639 151 -30 4 -67 8 -81 11
-66 10 -139 14 -140 7 -1 -11 -1 -501 0 -535 1 -24 5 -27 54 -33 103 -13 123
-17 217 -37 467 -99 761 -341 873 -718 26 -88 38 -135 45 -185 1 -7 347 -10
1033 -10 l1031 -1 -6 111 c-3 60 -8 125 -11 143 -3 17 -7 44 -9 60 -86 600
-462 1193 -1021 1607 -398 295 -825 479 -1457 627 l-36 8 0 286 1 286 51 -7
c266 -36 811 -187 1039 -289 18 -8 52 -22 77 -33 54 -22 320 -153 375 -185
318 -184 575 -379 820 -623 202 -200 326 -352 452 -550 189 -298 330 -652 387
-975 3 -19 8 -46 11 -60 13 -69 33 -247 40 -360 1 -19 3 -38 4 -42 0 -4 156
-7 346 -7 l345 0 -2 1872 -3 1872 -352 1 -352 1 2 -878 c1 -482 1 -877 1 -876
-105 145 -314 364 -499 523 -33 28 -81 70 -108 92 -136 117 -409 310 -602 424
-126 75 -155 91 -310 167 -292 145 -535 239 -849 331 -98 28 -382 98 -431 106
-11 1 -69 12 -130 23 -60 11 -130 23 -155 26 -25 3 -52 8 -60 10 -8 2 -42 6
-75 10 -33 3 -73 8 -90 10 -146 19 -278 30 -502 40 l-143 7 -1 -24z"/>
<path d="M7403 16062 l-53 -3 0 -972 0 -972 278 0 277 0 2 575 c1 316 3 581 3
589 0 8 75 -60 168 -151 92 -92 214 -212 272 -268 58 -56 251 -244 429 -419
178 -174 331 -319 340 -322 13 -4 430 -5 452 0 4 0 6 438 7 971 0 716 -3 970
-12 971 -13 1 -428 1 -498 0 l-48 -1 -2 -584 -3 -585 -161 157 c-172 167 -904
885 -984 965 l-48 47 -184 3 c-100 1 -207 1 -235 -1z"/>
<path d="M13847 16055 c-3 -9 -1 -1890 2 -1925 1 -13 111 -15 939 -15 l937 0
1 170 c0 94 -2 175 -4 182 -3 9 -146 12 -610 12 -334 0 -629 0 -657 1 l-50 0
0 222 1 223 549 2 c303 1 557 2 565 2 13 1 15 27 14 174 l-1 172 -564 5 -564
5 0 205 0 205 638 3 637 2 0 180 c0 137 -3 180 -12 181 -7 0 -419 1 -915 2
-595 1 -904 -1 -906 -8z"/>
<path d="M12371 15940 c-4 -3 -7 -84 -6 -180 l0 -175 -145 -3 -145 -3 2 -147
c1 -81 2 -157 2 -170 1 -22 4 -23 69 -22 37 1 101 1 142 1 l75 -1 0 -327 c-1
-399 9 -469 78 -573 106 -160 300 -240 587 -243 193 -3 285 10 400 55 83 31
83 18 1 191 l-73 154 -35 -18 c-53 -27 -140 -42 -215 -37 -89 7 -148 41 -178
103 -21 43 -21 56 -21 366 0 177 2 323 4 326 3 2 106 4 231 4 l226 0 1 37 c0
20 1 96 1 167 l1 130 -232 3 c-211 2 -231 4 -231 20 -1 9 0 90 0 180 0 89 -3
163 -7 163 -26 4 -526 3 -532 -1z"/>
<path d="M24360 15763 l0 -183 -144 0 -145 0 0 -169 1 -170 140 0 c77 0 142
-1 143 -3 2 -2 6 -165 8 -363 2 -198 6 -367 9 -375 3 -8 8 -28 13 -45 50 -188
241 -320 511 -354 103 -13 318 -5 404 14 97 23 202 64 197 79 -3 6 -36 75 -73
154 -51 108 -72 142 -83 138 -9 -2 -36 -13 -61 -22 -32 -13 -73 -18 -140 -19
-114 0 -164 21 -207 87 l-28 42 -1 333 -2 333 87 1 c47 0 151 1 231 2 l145 2
2 168 3 167 -234 0 -233 0 1 180 c0 99 -1 181 -4 181 -3 1 -125 2 -272 3
l-268 1 0 -182z"/>
<path d="M10887 15634 c-1 -1 -31 -5 -67 -8 -351 -31 -655 -214 -778 -467
-101 -210 -87 -465 35 -651 130 -197 375 -343 653 -388 41 -7 84 -14 95 -17
50 -11 339 -9 432 3 218 28 406 101 521 202 l33 29 -89 76 c-49 42 -109 94
-133 116 -24 23 -51 43 -61 46 -9 3 -39 -9 -71 -29 -110 -71 -260 -105 -432
-100 -112 3 -133 6 -225 35 -120 38 -208 108 -255 204 l-26 50 705 3 705 2 7
45 c9 64 -2 210 -22 274 -92 310 -384 523 -774 566 -63 7 -248 14 -253 9z
m228 -346 c122 -27 235 -109 279 -201 48 -101 94 -91 -421 -92 -513 0 -475 -8
-429 83 40 78 91 128 170 167 114 57 269 73 401 43z"/>
<path d="M19135 15628 c-156 -18 -282 -62 -387 -137 l-58 -40 0 82 0 82 -238
-2 c-130 -1 -247 -2 -259 -2 l-23 -1 0 -1018 0 -1017 270 0 270 0 1 30 c0 16
0 171 0 343 0 171 2 312 5 312 3 0 25 -14 50 -31 140 -96 310 -139 534 -134
135 3 189 10 289 37 349 95 584 343 607 643 9 106 9 105 1 183 -33 306 -263
546 -609 637 -147 38 -307 50 -453 33z m155 -362 c146 -24 273 -114 327 -233
35 -76 43 -203 18 -288 -34 -119 -120 -209 -245 -256 -77 -29 -84 -30 -188
-34 -109 -4 -192 13 -277 55 -96 48 -157 115 -193 212 -17 46 -21 76 -19 155
3 111 26 177 88 248 61 69 178 129 278 142 20 3 37 6 38 7 5 5 131 -1 173 -8z"/>
<path d="M21337 15634 c-1 -1 -38 -5 -82 -9 -44 -4 -83 -9 -86 -11 -3 -2 -21
-6 -40 -9 -19 -3 -72 -17 -118 -32 -263 -83 -458 -251 -543 -470 -55 -142 -59
-330 -8 -458 4 -11 14 -35 21 -53 48 -130 195 -275 364 -362 177 -90 375 -133
625 -134 201 -1 299 10 440 51 104 29 213 82 293 141 l60 44 -54 48 c-30 26
-96 83 -147 128 l-93 80 -48 -32 c-67 -46 -163 -83 -253 -100 -97 -17 -271
-13 -362 8 -146 35 -265 119 -312 221 l-24 50 704 3 704 2 6 23 c3 12 4 72 2
132 -3 88 -9 127 -32 194 -98 295 -381 491 -774 537 -52 6 -238 12 -243 8z
m228 -345 c28 -7 56 -16 63 -22 6 -5 12 -7 12 -3 0 9 69 -32 113 -66 20 -17
51 -50 68 -74 31 -46 63 -123 51 -125 -20 -4 -889 -5 -899 -1 -12 4 -11 10 23
88 33 76 138 159 244 193 88 28 226 32 325 10z"/>
<path d="M23729 15624 c-98 -13 -189 -36 -253 -64 -56 -24 -147 -81 -178 -112
l-23 -23 -3 93 -3 92 -32 1 c-18 0 -133 1 -257 1 l-225 1 -3 -749 -2 -749 270
0 270 0 1 25 c0 14 0 187 1 384 1 379 5 421 50 510 49 95 170 172 306 193 26
4 95 7 155 7 l107 0 0 202 0 201 -48 -1 c-27 -1 -87 -6 -133 -12z"/>
<path d="M26407 15634 c-1 -1 -33 -5 -70 -8 -310 -28 -556 -153 -634 -322 -38
-83 -44 -206 -14 -285 24 -64 75 -127 134 -167 50 -33 155 -80 199 -87 17 -3
34 -8 38 -10 10 -6 147 -33 205 -40 28 -3 61 -8 75 -10 14 -2 52 -6 85 -10 33
-4 74 -8 90 -11 17 -2 44 -6 60 -8 140 -18 215 -62 215 -124 0 -49 -43 -85
-127 -108 -95 -26 -349 -24 -478 2 -11 3 -42 9 -70 14 -65 13 -229 67 -277 91
l-38 19 -22 -42 c-12 -24 -27 -51 -33 -60 -12 -20 -82 -141 -106 -185 l-18
-32 77 -32 c42 -17 126 -44 187 -59 112 -29 141 -34 230 -45 28 -3 64 -9 80
-12 84 -16 437 -9 544 12 14 3 42 8 61 11 54 8 188 53 258 87 86 42 184 133
219 205 25 51 28 68 28 157 0 118 -19 168 -93 240 -67 66 -219 136 -342 159
-120 21 -188 31 -270 41 -303 35 -394 67 -412 142 -12 46 60 111 143 129 118
25 314 23 459 -6 30 -6 66 -14 80 -16 13 -3 64 -20 112 -38 l88 -33 79 136
c43 75 83 146 89 158 11 20 7 23 -61 47 -83 29 -167 53 -217 60 -19 3 -46 8
-59 10 -12 3 -44 8 -70 11 -25 3 -66 8 -91 11 -41 6 -328 13 -333 8z"/>
<path d="M15928 15610 c-26 -5 -25 -7 40 -76 85 -90 262 -280 298 -319 36 -39
251 -270 287 -307 15 -16 27 -35 27 -42 0 -7 -12 -24 -27 -38 -16 -13 -68 -67
-118 -120 -49 -52 -162 -170 -250 -262 -257 -269 -304 -320 -300 -326 2 -3
135 -5 295 -5 265 0 293 2 305 18 12 17 131 148 251 277 33 36 81 87 105 113
l45 48 64 -73 c36 -40 67 -75 70 -78 4 -4 233 -261 262 -295 5 -6 129 -10 318
-10 348 0 320 -8 245 70 -16 17 -86 91 -155 165 -69 73 -143 152 -165 175 -22
23 -98 105 -170 180 -71 76 -138 146 -148 155 -21 20 -32 6 156 204 73 76 152
160 177 186 25 26 110 116 190 200 80 84 146 155 147 159 2 5 -446 6 -554 2
-19 -1 -65 -44 -158 -146 -14 -16 -71 -77 -125 -135 -54 -58 -107 -116 -118
-130 l-20 -25 -19 21 c-10 12 -56 63 -103 115 -47 51 -110 120 -139 154 -30
33 -74 80 -97 104 l-42 45 -274 0 c-151 1 -286 -1 -300 -4z"/>
<path d="M10025 13239 c-173 -20 -314 -110 -374 -238 -22 -47 -26 -70 -26
-141 0 -71 4 -94 26 -140 51 -107 180 -201 317 -229 75 -15 226 -13 300 4 145
34 270 132 312 242 110 293 -170 546 -555 502z m276 -107 c151 -68 222 -188
195 -332 -29 -150 -200 -254 -406 -246 -160 6 -282 73 -342 187 -31 59 -32
175 -3 234 41 84 149 163 245 180 19 3 37 9 40 12 3 3 50 3 105 0 83 -4 111
-10 166 -35z"/>
<path d="M15510 13243 c-205 -26 -341 -106 -408 -242 -23 -48 -27 -68 -27
-141 0 -72 5 -94 27 -140 49 -100 142 -175 263 -213 59 -18 92 -22 210 -21
127 0 146 3 208 27 205 80 309 248 263 425 -45 177 -215 293 -446 305 -36 2
-76 2 -90 0z m180 -88 c188 -50 296 -201 256 -360 -20 -84 -77 -149 -171 -196
-73 -36 -90 -40 -185 -44 -96 -5 -169 9 -241 46 -117 58 -174 146 -173 264 1
106 52 189 154 248 90 52 251 71 360 42z"/>
<path d="M19749 13246 c-2 -2 -32 -6 -66 -10 -155 -16 -295 -105 -361 -230
-23 -44 -27 -63 -27 -141 0 -76 4 -98 26 -146 51 -108 185 -202 326 -230 91
-17 263 -7 337 19 62 22 136 66 136 80 0 5 -13 18 -30 30 l-30 22 -37 -24
c-60 -40 -122 -58 -213 -62 -100 -4 -152 6 -237 46 -69 32 -123 82 -156 144
-28 54 -31 174 -4 227 43 86 136 155 245 184 122 31 282 9 370 -50 l35 -24 28
22 c15 12 27 27 25 32 -8 30 -140 90 -218 100 -74 9 -146 14 -149 11z"/>
<path d="M22835 13239 c-243 -29 -409 -184 -406 -379 1 -138 71 -245 208 -318
208 -110 521 -75 670 76 63 64 94 129 102 214 11 108 -22 194 -104 273 -110
106 -285 156 -470 134z m258 -99 c76 -29 155 -93 185 -152 32 -62 39 -149 18
-212 -49 -144 -200 -228 -398 -221 -111 3 -185 28 -257 86 -73 56 -103 114
-109 205 -4 65 -1 80 22 128 44 90 143 162 258 186 71 15 215 5 281 -20z"/>
<path d="M24735 13239 c-98 -14 -121 -20 -192 -54 -80 -38 -158 -108 -188
-171 -81 -168 -18 -361 150 -460 132 -77 322 -98 485 -54 77 21 162 70 216
126 138 141 128 360 -21 492 -107 94 -290 143 -450 121z m237 -94 c229 -75
304 -333 141 -487 -121 -114 -363 -140 -523 -56 -55 28 -121 95 -145 144 -44
94 -25 217 47 298 39 45 143 104 199 113 19 2 36 7 38 9 11 11 193 -4 243 -21z"/>
<path d="M25898 13245 c-2 -2 -28 -5 -58 -8 -162 -18 -306 -110 -368 -237 -23
-47 -27 -67 -27 -140 1 -71 5 -94 28 -141 76 -158 253 -245 488 -240 116 2
291 53 315 92 4 6 7 74 8 150 l1 139 -51 0 -50 0 1 -121 c1 -90 -2 -125 -12
-135 -39 -39 -232 -63 -338 -43 -118 22 -227 99 -268 189 -30 64 -29 170 2
229 65 126 200 191 388 187 112 -3 158 -15 233 -61 l35 -22 33 27 33 28 -48
29 c-50 31 -121 57 -185 69 -37 6 -156 13 -160 9z"/>
<path d="M7383 13228 c-5 -8 -9 -166 -9 -378 l1 -365 50 0 50 0 1 378 1 377
-42 0 c-23 0 -47 -6 -52 -12z"/>
<path d="M7780 12858 l0 -378 50 0 50 0 0 300 c0 165 3 300 6 300 3 0 139
-135 302 -300 l296 -301 40 3 41 3 0 375 0 375 -50 0 -50 0 0 -297 c0 -164 -2
-298 -5 -298 -4 0 -140 135 -302 300 -296 300 -297 300 -337 298 l-41 -1 0
-379z"/>
<path d="M8869 13232 c0 -11 -1 -663 0 -708 l1 -41 50 -2 50 -1 0 160 c0 159
0 160 23 161 12 0 119 0 238 0 199 -1 217 0 221 16 7 31 -3 53 -25 54 -12 1
-120 1 -239 1 l-218 0 0 148 0 147 264 0 c145 0 268 3 273 6 5 3 8 20 5 36
l-4 30 -319 -1 c-175 0 -319 -3 -320 -6z"/>
<path d="M10828 13233 c-4 -7 -3 -710 1 -739 2 -16 88 -17 93 -2 3 7 4 61 3
121 l-1 107 106 1 c235 2 219 5 270 -54 25 -28 72 -81 105 -117 58 -63 61 -65
113 -67 28 -1 52 2 52 5 0 4 -19 27 -43 52 -23 25 -67 75 -97 110 -30 36 -62
70 -70 77 -13 10 -12 12 5 18 136 48 189 112 190 231 0 133 -71 210 -232 247
-66 15 -489 23 -495 10z m517 -97 c70 -31 103 -74 110 -142 9 -83 -38 -147
-130 -180 -39 -13 -88 -17 -222 -19 -95 -1 -174 1 -174 4 -1 3 -2 88 -3 187
l-1 182 180 -3 c170 -2 183 -4 240 -29z"/>
<path d="M11796 13232 c-3 -5 -5 -176 -4 -380 l0 -372 49 0 49 0 2 297 3 296
41 -59 c46 -65 218 -300 237 -324 7 -8 28 -36 46 -62 60 -84 60 -84 266 199
l180 248 3 -298 2 -298 48 3 47 3 2 377 2 376 -43 0 c-43 0 -44 -1 -102 -81
-33 -45 -69 -97 -81 -115 -13 -18 -28 -38 -33 -45 -6 -7 -46 -61 -90 -122
-126 -176 -134 -185 -141 -183 -4 2 -58 73 -120 158 -62 85 -142 196 -179 245
-37 50 -75 102 -84 118 -15 22 -26 27 -57 27 -21 0 -40 -4 -43 -8z"/>
<path d="M13335 13216 c-29 -48 -115 -198 -115 -202 0 -2 -22 -41 -49 -86 -59
-101 -212 -371 -235 -415 l-17 -33 53 0 53 0 56 102 55 102 260 1 259 0 57
-100 57 -100 50 -2 c28 -2 51 1 51 6 0 5 -70 132 -156 282 -86 151 -166 292
-178 314 -13 22 -38 66 -56 98 l-32 58 -50 -2 c-38 -2 -53 -8 -63 -23z m175
-268 l108 -193 -216 -3 c-118 -1 -217 0 -219 2 -6 5 210 395 216 390 2 -2 52
-90 111 -196z"/>
<path d="M13845 13232 c-6 -4 -11 -19 -12 -34 -2 -32 -14 -30 205 -30 106 0
122 -3 123 -17 0 -9 1 -163 1 -343 l1 -327 51 0 52 0 -1 342 0 342 156 1 c86
0 161 4 167 8 7 4 10 17 8 29 -3 12 -5 25 -5 29 -1 9 -733 9 -746 0z"/>
<path d="M14750 12859 l0 -379 50 0 50 0 0 379 0 379 -50 0 -50 1 0 -380z"/>
<path d="M16276 12866 c1 -204 2 -374 3 -378 0 -4 23 -7 50 -6 l48 0 0 294 c1
162 3 297 6 300 3 3 19 -9 37 -28 17 -18 151 -154 297 -301 l266 -268 40 3 40
3 0 375 0 375 -49 0 -49 0 -2 -295 c-1 -162 -2 -299 -2 -303 -1 -4 -13 5 -27
20 -14 15 -150 153 -302 306 l-276 278 -40 -2 -41 -2 1 -371z"/>
<path d="M17568 13209 c-3 -16 -2 -32 1 -36 3 -5 78 -8 166 -8 l160 0 2 -315
c0 -173 2 -327 2 -342 1 -27 3 -28 49 -28 l49 0 1 338 c0 185 1 340 1 343 1 3
65 6 144 7 78 0 152 1 164 1 19 1 22 6 21 35 l-1 34 -378 0 -377 0 -4 -29z"/>
<path d="M18483 12860 l1 -379 330 2 331 2 3 35 3 35 -273 0 c-150 -1 -278 0
-283 2 -12 4 -14 257 -3 269 4 3 113 7 243 7 l235 0 0 34 c0 38 35 34 -285 36
l-199 2 -1 130 0 130 260 2 c143 1 265 2 271 2 6 1 11 16 12 35 l1 35 -323 -1
-323 0 0 -378z"/>
<path d="M20336 13231 c-1 -3 -2 -172 -2 -376 l1 -370 50 0 50 0 0 173 0 172
292 0 293 0 0 -175 0 -175 50 0 50 0 0 379 0 378 -50 2 -50 1 0 -169 0 -169
-290 0 c-159 1 -291 5 -291 9 -1 5 -3 77 -4 159 -1 83 -3 155 -4 160 -1 11
-90 11 -95 1z"/>
<path d="M21425 13230 c-1 -3 -3 -173 -3 -377 l1 -373 48 0 c32 0 49 4 50 13
0 6 1 144 2 306 l0 293 302 -307 301 -306 40 3 39 3 2 376 2 376 -50 2 -49 1
-1 -42 c0 -24 0 -159 -1 -300 0 -142 -2 -258 -6 -258 -3 0 -138 135 -301 300
-293 297 -297 301 -334 298 -21 -1 -40 -5 -42 -8z"/>
<path d="M23636 13232 c-2 -4 -4 -175 -5 -379 l0 -372 312 2 312 2 0 35 0 35
-255 1 c-140 1 -258 2 -262 3 -3 0 -6 142 -6 314 -1 171 -1 324 -1 340 -1 25
-4 27 -45 27 -25 0 -47 -3 -50 -8z"/>
<path d="M26412 13232 c3 -10 249 -334 321 -425 37 -47 47 -68 48 -98 0 -22 1
-81 2 -131 l2 -93 48 -1 c37 -2 47 2 48 15 1 9 2 68 3 132 l1 117 60 78 c188
245 305 402 305 408 0 8 -83 7 -96 -2 -5 -4 -75 -92 -154 -197 -78 -104 -148
-196 -155 -203 -9 -10 -44 30 -170 196 l-158 209 -55 2 c-29 0 -52 -3 -50 -7z"/>
</g>
</svg>
